<?xml version="1.0" encoding="UTF-8" standalone="no"?>
<svg
   version="1.1"
   width="1.6966654in"
   height="0.81000006in"
   viewBox="0 0 122.15991 58.320003"
   id="svg4"
   sodipodi:docname="manakkodam-logo-solid.svg"
   inkscape:version="1.4 (86a8ad7, 2024-10-11)"
   xmlns:inkscape="http://www.inkscape.org/namespaces/inkscape"
   xmlns:sodipodi="http://sodipodi.sourceforge.net/DTD/sodipodi-0.dtd"
   xmlns="http://www.w3.org/2000/svg"
   xmlns:svg="http://www.w3.org/2000/svg">
  <sodipodi:namedview
     id="namedview4"
     pagecolor="#ffffff"
     bordercolor="#000000"
     borderopacity="0.25"
     inkscape:showpageshadow="2"
     inkscape:pageopacity="0.0"
     inkscape:pagecheckerboard="0"
     inkscape:deskcolor="#d1d1d1"
     inkscape:document-units="in"
     inkscape:zoom="2.3682597"
     inkscape:cx="83.183443"
     inkscape:cy="96.062098"
     inkscape:window-width="1920"
     inkscape:window-height="991"
     inkscape:window-x="-9"
     inkscape:window-y="-9"
     inkscape:window-maximized="1"
     inkscape:current-layer="svg4" />
  <defs
     id="defs3" />
  <path
     d="M 30.4798,49.2001 30.7199,31.68 37.44,34.8001 V 58.0799 C 17.9447,55.7433 5.0856,43.1767 0,18.9601 8.1391,16.3712 18.447,16.6464 30.4798,19.1999 V 0 C 42.7734,3.528 53.0353,10.2475 60.9599,20.6399 69.533,10.4173 79.6291,3.2488 91.6798,0 l 0.2401,19.1999 c 11.0931,-2.4613 21.2632,-2.681 30.24,0 C 117.0371,44.1278 103.8648,55.7433 84.96,58.32 L 84.7199,34.56 91.44,31.9201 91.6798,48.96 C 101.7932,45.3557 109.398,38.0012 113.04,24.7201 90.5581,22.627 73.8762,33.3229 60.9599,52.3199 47.5713,32.2645 30.6706,22.0776 9.1199,24.9599 12.8446,37.8986 20.389,45.371 30.4798,49.2001 Z M 37.6798,10.8 V 21.6 C 45.6933,24.5942 53.5127,31.1315 61.2,40.0799 67.8404,32.1398 75.4341,25.7834 84.4798,21.8401 V 10.8 C 75.5127,14.3648 67.8594,22.4458 60.9599,33.12 53.9986,22.2225 46.4403,13.9104 37.6798,10.8 Z"
     style="fill:#eddc64;fill-opacity:1"
     id="path3" />
</svg>
